<svg width="460" height="366" viewBox="0 0 460 366" fill="none" xmlns="http://www.w3.org/2000/svg">
<rect width="460" height="366" fill="#FEFDFD"/>
<path d="M380 178.971V173.695H373.463V165.493L373.24 165.561L367.095 167.443L366.972 167.482V173.695H357.277V170.235C357.277 168.622 357.633 167.388 358.346 166.565C359.049 165.752 360.056 165.341 361.342 165.341C362.269 165.341 363.221 165.558 364.186 165.989L364.426 166.096V160.54L364.309 160.498C363.415 160.174 362.191 160.012 360.681 160.012C358.774 160.012 357.037 160.427 355.525 161.25C354.012 162.076 352.823 163.255 351.991 164.755C351.161 166.248 350.734 167.978 350.734 169.889V173.695H346.179V178.971H350.734V201.199H357.277V178.971H366.972V193.098C366.972 198.915 369.712 201.863 375.119 201.863C376.003 201.863 376.939 201.756 377.891 201.552C378.863 201.345 379.524 201.134 379.916 200.911L380 200.862V195.537L379.734 195.712C379.378 195.948 378.941 196.143 378.419 196.285C377.898 196.434 377.464 196.505 377.133 196.505C375.86 196.505 374.924 196.165 374.348 195.491C373.755 194.811 373.463 193.622 373.463 191.957V178.971H380ZM331.58 196.505C329.203 196.505 327.33 195.718 326.015 194.167C324.684 192.605 324.013 190.38 324.013 187.555C324.013 184.637 324.684 182.356 326.015 180.766C327.337 179.188 329.186 178.388 331.525 178.388C333.793 178.388 335.594 179.153 336.886 180.662C338.185 182.182 338.849 184.446 338.849 187.397C338.849 190.38 338.227 192.677 337.003 194.209C335.791 195.734 333.968 196.505 331.58 196.505ZM331.865 173.034C327.343 173.034 323.745 174.362 321.179 176.983C318.617 179.606 317.318 183.231 317.318 187.766C317.318 192.071 318.588 195.534 321.085 198.057C323.592 200.584 326.99 201.863 331.205 201.863C335.594 201.863 339.121 200.516 341.687 197.856C344.249 195.203 345.548 191.611 345.548 187.183C345.548 182.81 344.327 179.318 341.92 176.811C339.513 174.304 336.131 173.034 331.865 173.034ZM306.771 173.034C303.694 173.034 301.141 173.821 299.201 175.379C297.238 176.944 296.244 178.997 296.244 181.479C296.244 182.771 296.461 183.918 296.882 184.89C297.309 185.868 297.964 186.726 298.838 187.449C299.703 188.161 301.044 188.913 302.81 189.674C304.303 190.289 305.414 190.808 306.117 191.216C306.807 191.617 307.299 192.019 307.574 192.414C307.843 192.796 307.979 193.321 307.979 193.972C307.979 195.819 306.596 196.719 303.752 196.719C302.699 196.719 301.501 196.499 300.176 196.065C298.861 195.631 297.63 195.006 296.519 194.206L296.244 194.011V200.315L296.344 200.36C297.274 200.788 298.44 201.15 299.813 201.432C301.183 201.717 302.431 201.863 303.519 201.863C306.859 201.863 309.554 201.069 311.513 199.505C313.489 197.927 314.49 195.828 314.49 193.256C314.49 191.404 313.952 189.813 312.887 188.53C311.834 187.261 310.004 186.091 307.445 185.061C305.407 184.242 304.105 183.561 303.571 183.04C303.049 182.538 302.787 181.825 302.787 180.921C302.787 180.121 303.108 179.483 303.775 178.962C304.449 178.44 305.385 178.175 306.561 178.175C307.649 178.175 308.766 178.35 309.874 178.686C310.979 179.023 311.957 179.477 312.77 180.031L313.033 180.212V174.232L312.935 174.187C312.187 173.866 311.196 173.591 309.997 173.368C308.796 173.144 307.714 173.034 306.771 173.034ZM279.199 196.505C276.828 196.505 274.956 195.718 273.637 194.167C272.309 192.605 271.635 190.38 271.635 187.555C271.635 184.637 272.309 182.356 273.637 180.766C274.956 179.188 276.808 178.388 279.144 178.388C281.415 178.388 283.219 179.153 284.511 180.662C285.81 182.182 286.471 184.446 286.471 187.397C286.471 190.38 285.852 192.677 284.628 194.209C283.41 195.734 281.586 196.505 279.199 196.505ZM279.49 173.034C274.962 173.034 271.366 174.362 268.804 176.983C266.242 179.606 264.937 183.231 264.937 187.766C264.937 192.074 266.206 195.534 268.71 198.057C271.208 200.584 274.615 201.863 278.83 201.863C283.219 201.863 286.74 200.516 289.305 197.856C291.867 195.203 293.166 191.611 293.166 187.183C293.166 182.81 291.948 179.318 289.545 176.811C287.138 174.304 283.756 173.034 279.49 173.034ZM255.012 178.46V173.695H248.549V201.199H255.012V187.131C255.012 184.737 255.556 182.771 256.622 181.288C257.681 179.82 259.083 179.078 260.797 179.078C261.383 179.078 262.034 179.176 262.74 179.363C263.443 179.555 263.945 179.759 264.247 179.976L264.522 180.17V173.649L264.415 173.604C263.813 173.348 262.964 173.219 261.889 173.219C260.259 173.219 258.808 173.74 257.567 174.77C256.473 175.674 255.682 176.915 255.08 178.46H255.012ZM236.985 173.034C234.018 173.034 231.375 173.669 229.127 174.926C226.873 176.183 225.136 177.977 223.948 180.261C222.765 182.538 222.169 185.197 222.169 188.164C222.169 190.762 222.749 193.146 223.896 195.249C225.049 197.354 226.675 199 228.729 200.143C230.789 201.283 233.166 201.863 235.793 201.863C238.864 201.863 241.488 201.248 243.587 200.036L243.668 199.988V194.06L243.399 194.257C242.447 194.954 241.381 195.508 240.241 195.906C239.097 196.305 238.058 196.505 237.144 196.505C234.611 196.505 232.574 195.712 231.1 194.147C229.619 192.579 228.865 190.377 228.865 187.607C228.865 184.818 229.649 182.561 231.194 180.892C232.732 179.231 234.77 178.388 237.251 178.388C239.373 178.388 241.439 179.108 243.399 180.533L243.668 180.727V174.485L243.58 174.433C242.845 174.022 241.844 173.679 240.597 173.423C239.35 173.164 238.139 173.034 236.985 173.034ZM217.722 173.698H211.26V201.199H217.722V173.698ZM214.554 161.982C213.491 161.982 212.565 162.341 211.804 163.06C211.039 163.783 210.651 164.69 210.651 165.759C210.651 166.811 211.033 167.702 211.794 168.402C212.542 169.102 213.472 169.458 214.554 169.458C215.639 169.458 216.569 169.102 217.336 168.405C218.101 167.702 218.489 166.811 218.489 165.759C218.489 164.725 218.107 163.828 217.365 163.09C216.62 162.354 215.675 161.982 214.554 161.982ZM198.439 171.667V201.199H205.027V162.824H195.906L184.313 191.326L173.053 162.824H163.559V201.199H169.752V171.664H169.969L181.854 201.199H186.525L198.228 171.667H198.439Z" fill="#F1511B"/>
<mask id="mask0_123_163" style="mask-type:luminance" maskUnits="userSpaceOnUse" x="80" y="150" width="32" height="32">
<path d="M80 150H111.511V181.122H80V150Z" fill="white"/>
</mask>
<g mask="url(#mask0_123_163)">
<path d="M80.4502 150H110.837V180.432H80.4502V150Z" fill="#F1511B"/>
</g>
<mask id="mask1_123_163" style="mask-type:luminance" maskUnits="userSpaceOnUse" x="113" y="150" width="32" height="32">
<path d="M113.999 150H144.681V181.122H113.999V150Z" fill="white"/>
</mask>
<g mask="url(#mask1_123_163)">
<path d="M114.002 150H144.389V180.432H114.002V150Z" fill="#80CC28"/>
</g>
<mask id="mask2_123_163" style="mask-type:luminance" maskUnits="userSpaceOnUse" x="80" y="183" width="32" height="32">
<path d="M80 183.61H111.511V214.059H80V183.61Z" fill="white"/>
</mask>
<g mask="url(#mask2_123_163)">
<path d="M80.4502 183.613H110.837V214.046H80.4502V183.613Z" fill="#00ADEF"/>
</g>
<mask id="mask3_123_163" style="mask-type:luminance" maskUnits="userSpaceOnUse" x="113" y="183" width="32" height="32">
<path d="M113.999 183.61H144.681V214.059H113.999V183.61Z" fill="white"/>
</mask>
<g mask="url(#mask3_123_163)">
<path d="M114.002 183.613H144.389V214.046H114.002V183.613Z" fill="#FBBC09"/>
</g>
</svg>
